PathFileType	4	(X/Y/Z)
DataRate	CameraRate	NumFrames	NumMarkers	Units	OrigDataRate	OrigDataStartFrame	OrigNumFrames	
	120.0	120.0	12	39	mm	120.0	125	142
Frame#	Time	midhip	hip_r	hip_l	knee_r	knee_l	ankle_r	ankle_l	midasis	asis_r	asis_l	psis_r	psis_l	epicondLat_r	epicondLat_l	epicondMed_r	epicondMed_l	malleolusLat_r	malleolusLat_l	malleolusMedv_r	malleolusMedv_l	heel_r	heel_l	sternalnotch	xyphoidprocess	neck	subclavicle_r	subclavicle_l	toe_r	toe_l	thighwand_r	thighwand_l	upperleg1_r	upperleg1_l	upperleg2_r	upperleg2_l	shankwand_r	shankwand_l	lowerleg1_r	lowerleg1_l
	X1	Y1	Z1	X2	Y2	Z2	X3	Y3	Z3	X4	Y4	Z4	X5	Y5	Z5	X6	Y6	Z6	X7	Y7	Z7	X8	Y8	Z8	X9	Y9	Z9	X10	Y10	Z10	X11	Y11	Z11	X12	Y12	Z12	X13	Y13	Z13	X14	Y14	Z14	X15	Y15	Z15	X16	Y16	Z16	X17	Y17	Z17	X18	Y18	Z18	X19	Y19	Z19	X20	Y20	Z20	X21	Y21	Z21	X22	Y22	Z22	X23	Y23	Z23	X24	Y24	Z24	X25	Y25	Z25	X26	Y26	Z26	X27	Y27	Z27	X28	Y28	Z28	X29	Y29	Z29	X30	Y30	Z30	X31	Y31	Z31	X32	Y32	Z32	X33	Y33	Z33	X34	Y34	Z34	X35	Y35	Z35	X36	Y36	Z36	X37	Y37	Z37	X38	Y38	Z38	X39	Y39	Z39

	125	1.04167	541.236	743.152	-263.510	532.735	744.900	-198.933	549.737	741.403	-328.088	481.025	406.614	-155.856	485.286	424.079	-352.880	511.642	66.822	-119.423	494.620	70.224	-390.720	613.700	809.345	-255.763	600.051	812.153	-152.084	627.349	806.538	-359.442	455.278	855.797	-244.230	458.619	854.097	-299.424	476.871	414.166	-101.536	483.943	428.594	-407.177	488.042	406.487	-207.641	491.463	398.186	-305.797	499.476	69.518	-84.054	484.408	73.739	-426.109	515.404	65.796	-142.002	497.926	66.431	-372.317	477.808	37.390	-143.894	437.202	41.379	-380.916	553.969	1171.975	-272.480	590.305	1092.939	-273.510	461.347	1219.074	-286.237	565.516	1171.570	-232.444	570.335	1177.039	-307.587	607.205	36.579	-85.076	595.962	38.824	-420.469	591.899	528.447	-56.472	660.085	525.360	-355.105	527.511	588.382	-98.157	598.746	597.067	-381.449	516.752	501.208	-106.222	574.815	512.554	-384.773	466.677	185.282	-21.346	490.693	205.637	-487.725	481.010	144.534	-91.908	478.861	158.341	-419.113
	126	1.05000	541.299	743.178	-263.495	532.818	744.921	-198.915	549.780	741.435	-328.075	481.116	406.625	-155.850	485.334	424.086	-352.874	511.642	66.817	-119.433	494.628	70.236	-390.722	613.802	809.331	-255.758	600.185	812.129	-152.073	627.419	806.533	-359.444	455.333	855.960	-244.291	458.777	854.093	-299.427	476.975	414.173	-101.528	483.990	428.602	-407.170	488.367	406.439	-207.592	490.470	398.983	-305.561	499.484	69.515	-84.062	484.416	73.753	-426.111	515.384	65.841	-142.016	497.929	66.446	-372.315	477.820	37.393	-143.897	437.207	41.386	-380.910	553.817	1171.977	-272.380	590.098	1092.918	-273.567	461.435	1219.070	-286.212	565.555	1171.574	-232.423	570.019	1177.023	-307.541	607.210	36.582	-85.078	595.957	38.830	-420.476	592.049	528.421	-56.486	660.165	525.322	-355.090	527.633	588.402	-98.166	599.366	596.701	-381.679	516.972	501.236	-106.201	574.830	512.554	-384.775	466.734	185.285	-21.347	490.710	205.648	-487.721	481.003	144.553	-91.899	478.836	158.394	-419.132
	127	1.05833	541.352	743.211	-263.475	532.891	744.949	-198.892	549.814	741.473	-328.057	481.195	406.634	-155.832	485.373	424.091	-352.866	511.626	66.808	-119.441	494.616	70.251	-390.723	613.899	809.316	-255.748	600.312	812.107	-152.048	627.486	806.526	-359.449	455.393	856.154	-244.357	458.923	854.087	-299.420	477.073	414.178	-101.508	484.032	428.608	-407.162	488.502	406.383	-207.462	489.791	399.572	-305.482	499.479	69.508	-84.066	484.405	73.771	-426.112	515.353	65.855	-142.031	497.894	66.465	-372.299	477.823	37.396	-143.901	437.213	41.381	-380.902	553.825	1171.997	-272.319	590.117	1092.944	-273.533	461.509	1219.055	-286.183	565.579	1171.590	-232.377	570.012	1177.051	-307.475	607.197	36.599	-85.066	595.945	38.848	-420.489	592.199	528.387	-56.499	660.241	525.304	-355.086	527.728	588.417	-98.138	599.849	596.555	-381.766	517.121	501.238	-106.131	574.848	512.591	-384.778	466.790	185.278	-21.347	490.720	205.657	-487.714	480.991	144.549	-91.882	478.825	158.421	-419.133
	128	1.06667	541.405	743.241	-263.449	532.961	744.975	-198.864	549.849	741.506	-328.034	481.263	406.636	-155.804	485.406	424.089	-352.854	511.597	66.793	-119.440	494.592	70.259	-390.717	613.997	809.298	-255.732	600.437	812.083	-152.014	627.558	806.512	-359.450	455.461	856.354	-244.419	459.056	854.074	-299.405	477.161	414.177	-101.478	484.069	428.606	-407.150	488.427	406.358	-207.386	489.647	399.750	-305.446	499.463	69.495	-84.060	484.383	73.781	-426.105	515.322	65.830	-142.036	497.862	66.466	-372.289	477.820	37.394	-143.902	437.217	41.362	-380.891	553.956	1172.002	-272.342	590.298	1092.971	-273.496	461.561	1219.019	-286.143	565.596	1171.579	-232.347	570.240	1177.086	-307.470	607.175	36.618	-85.044	595.935	38.865	-420.496	592.346	528.344	-56.509	660.320	525.290	-355.083	527.860	588.379	-98.137	599.993	596.572	-381.776	517.188	501.230	-106.099	574.857	512.614	-384.772	466.843	185.260	-21.344	490.727	205.658	-487.703	481.022	144.523	-91.884	478.820	158.411	-419.125
	129	1.07500	541.465	743.263	-263.425	533.035	744.994	-198.838	549.894	741.532	-328.012	481.321	406.630	-155.771	485.436	424.077	-352.839	511.562	66.771	-119.430	494.568	70.253	-390.703	614.098	809.276	-255.715	600.559	812.056	-151.979	627.637	806.495	-359.450	455.539	856.537	-244.471	459.178	854.056	-299.385	477.242	414.168	-101.443	484.103	428.594	-407.135	488.274	406.349	-207.336	489.414	399.967	-305.509	499.441	69.476	-84.046	484.361	73.777	-426.092	515.283	65.799	-142.027	497.839	66.449	-372.272	477.815	37.385	-143.902	437.220	41.333	-380.881	554.151	1171.992	-272.398	590.562	1092.992	-273.529	461.641	1218.964	-286.085	565.650	1171.523	-232.330	570.555	1177.138	-307.495	607.154	36.627	-85.019	595.928	38.878	-420.493	592.486	528.293	-56.517	660.405	525.274	-355.080	527.976	588.337	-98.156	600.136	596.611	-381.815	517.207	501.227	-106.088	574.841	512.657	-384.817	466.892	185.236	-21.337	490.731	205.650	-487.687	481.041	144.508	-91.884	478.798	158.411	-419.120
	130	1.08333	541.536	743.276	-263.411	533.118	745.003	-198.822	549.955	741.549	-327.999	481.375	406.620	-155.740	485.464	424.064	-352.824	511.530	66.748	-119.422	494.545	70.241	-390.689	614.202	809.254	-255.704	600.678	812.028	-151.953	627.725	806.479	-359.455	455.631	856.677	-244.505	459.291	854.035	-299.364	477.316	414.157	-101.411	484.134	428.580	-407.120	488.120	406.344	-207.240	489.337	400.095	-305.478	499.422	69.455	-84.034	484.341	73.766	-426.079	515.249	65.762	-142.021	497.809	66.424	-372.244	477.811	37.373	-143.903	437.222	41.303	-380.872	554.323	1171.973	-272.405	590.785	1092.997	-273.537	461.740	1218.908	-286.014	565.737	1171.470	-232.285	570.800	1177.165	-307.491	607.138	36.626	-84.999	595.921	38.891	-420.489	592.616	528.243	-56.526	660.490	525.255	-355.082	528.043	588.315	-98.129	600.267	596.639	-381.799	517.221	501.228	-106.036	574.862	512.674	-384.803	466.937	185.211	-21.329	490.734	205.638	-487.673	481.028	144.522	-91.844	478.782	158.411	-419.102
	131	1.09167	541.625	743.280	-263.408	533.211	745.005	-198.818	550.039	741.554	-327.997	481.424	406.614	-155.714	485.491	424.058	-352.811	511.502	66.733	-119.419	494.521	70.233	-390.678	614.309	809.237	-255.701	600.791	812.008	-151.936	627.827	806.465	-359.466	455.743	856.754	-244.514	459.395	854.019	-299.345	477.386	414.152	-101.383	484.164	428.571	-407.108	487.974	406.346	-207.162	489.502	400.078	-305.201	499.407	69.442	-84.027	484.319	73.760	-426.069	515.216	65.713	-142.024	497.787	66.398	-372.226	477.804	37.365	-143.905	437.224	41.282	-380.864	554.363	1171.948	-272.334	590.838	1092.978	-273.526	461.843	1218.848	-285.950	565.818	1171.435	-232.216	570.803	1177.153	-307.446	607.129	36.621	-84.990	595.907	38.908	-420.493	592.733	528.206	-56.536	660.569	525.235	-355.090	528.127	588.271	-98.091	600.412	596.604	-381.697	517.245	501.228	-105.985	574.948	512.582	-384.659	466.978	185.195	-21.324	490.735	205.631	-487.662	481.016	144.536	-91.783	478.791	158.381	-419.070
	132	1.10000	541.731	743.276	-263.411	533.311	745.004	-198.823	550.151	741.549	-328.000	481.469	406.619	-155.692	485.517	424.065	-352.798	511.477	66.735	-119.418	494.496	70.239	-390.670	614.419	809.229	-255.700	600.891	812.004	-151.922	627.947	806.453	-359.477	455.852	856.774	-244.504	459.494	854.010	-299.328	477.450	414.159	-101.360	484.192	428.576	-407.095	487.889	406.385	-207.156	489.501	400.124	-305.084	499.393	69.445	-84.022	484.296	73.768	-426.061	515.179	65.696	-142.028	497.777	66.390	-372.222	477.792	37.371	-143.908	437.223	41.278	-380.854	554.261	1171.934	-272.233	590.702	1092.952	-273.577	461.967	1218.805	-285.896	565.875	1171.414	-232.165	570.562	1177.136	-307.406	607.125	36.622	-84.992	595.888	38.934	-420.500	592.833	528.188	-56.544	660.642	525.218	-355.097	528.220	588.262	-98.085	600.559	596.579	-381.638	517.273	501.244	-105.982	574.991	512.521	-384.593	467.017	185.193	-21.322	490.730	205.634	-487.653	481.002	144.550	-91.760	478.790	158.372	-419.065
	133	1.10833	541.844	743.275	-263.418	533.410	745.010	-198.832	550.279	741.539	-328.004	481.513	406.637	-155.674	485.545	424.085	-352.787	511.457	66.756	-119.419	494.472	70.260	-390.663	614.531	809.227	-255.697	600.977	812.015	-151.911	628.085	806.438	-359.484	455.941	856.782	-244.490	459.590	854.012	-299.316	477.513	414.181	-101.340	484.223	428.593	-407.084	487.837	406.459	-207.165	489.609	400.165	-305.061	499.385	69.468	-84.019	484.274	73.791	-426.055	515.152	65.731	-142.033	497.774	66.409	-372.227	477.775	37.390	-143.911	437.219	41.289	-380.846	554.165	1171.932	-272.159	590.548	1092.926	-273.646	462.083	1218.808	-285.847	565.946	1171.410	-232.152	570.323	1177.119	-307.388	607.119	36.631	-84.998	595.867	38.963	-420.507	592.919	528.188	-56.547	660.713	525.203	-355.100	528.298	588.311	-98.099	600.484	596.735	-381.756	517.297	501.296	-105.995	574.973	512.533	-384.650	467.060	185.204	-21.323	490.722	205.651	-487.647	480.977	144.573	-91.768	478.764	158.409	-419.095
	134	1.11667	541.957	743.277	-263.429	533.503	745.025	-198.845	550.411	741.529	-328.012	481.561	406.667	-155.661	485.580	424.113	-352.778	511.447	66.791	-119.427	494.452	70.291	-390.660	614.646	809.225	-255.698	601.059	812.035	-151.908	628.233	806.416	-359.489	456.015	856.803	-244.477	459.688	854.023	-299.309	477.578	414.213	-101.327	484.262	428.618	-407.076	487.805	406.538	-207.155	0.000	0.000	0.000	499.385	69.505	-84.024	484.257	73.824	-426.052	515.110	65.796	-142.047	497.761	66.454	-372.226	477.758	37.419	-143.918	437.216	41.314	-380.839	554.158	1171.952	-272.120	590.510	1092.933	-273.684	462.173	1218.831	-285.790	566.039	1171.433	-232.149	570.230	1177.127	-307.382	607.111	36.649	-85.005	595.852	38.986	-420.516	593.000	528.203	-56.549	660.777	525.190	-355.107	528.362	588.380	-98.102	600.212	597.061	-381.949	517.327	501.364	-105.994	0.000	0.000	0.000	467.111	185.223	-21.327	490.716	205.678	-487.646	480.961	144.626	-91.767	478.724	158.476	-419.122
	135	1.12500	542.067	743.280	-263.442	533.593	745.043	-198.862	550.542	741.517	-328.022	481.616	406.702	-155.653	485.626	424.143	-352.770	511.445	66.834	-119.443	494.438	70.324	-390.659	614.761	809.222	-255.703	601.142	812.056	-151.917	628.380	806.388	-359.490	456.079	856.830	-244.463	459.785	854.042	-299.303	477.649	414.250	-101.318	484.311	428.646	-407.068	487.749	406.616	-207.098	0.000	0.000	0.000	499.392	69.548	-84.036	484.246	73.861	-426.052	515.082	65.860	-142.059	497.728	66.520	-372.208	477.745	37.451	-143.924	437.216	41.345	-380.833	554.314	1172.005	-272.115	590.701	1093.001	-273.626	462.266	1218.858	-285.731	566.112	1171.478	-232.106	570.457	1177.197	-307.356	607.103	36.670	-85.014	595.847	38.998	-420.526	593.078	528.225	-56.551	660.834	525.180	-355.117	528.407	588.455	-98.078	600.126	597.261	-381.999	517.351	501.440	-105.960	0.000	0.000	0.000	467.169	185.246	-21.334	490.718	205.709	-487.648	480.967	144.698	-91.761	478.694	158.541	-419.114
	136	1.13333	542.174	743.282	-263.453	533.680	745.060	-198.876	550.669	741.503	-328.030	481.676	406.734	-155.647	485.682	424.169	-352.758	511.447	66.874	-119.456	494.438	70.350	-390.655	614.875	809.216	-255.706	601.225	812.074	-151.931	628.525	806.358	-359.481	456.137	856.857	-244.446	459.882	854.065	-299.298	477.723	414.284	-101.312	484.367	428.670	-407.056	487.641	406.678	-207.016	0.000	0.000	0.000	499.402	69.590	-84.047	484.246	73.888	-426.047	515.132	65.882	-142.058	497.719	66.571	-372.197	477.741	37.477	-143.927	437.217	41.375	-380.830	554.603	1172.050	-272.153	591.049	1093.070	-273.517	462.364	1218.888	-285.675	566.192	1171.508	-232.066	570.927	1177.273	-307.326	607.098	36.686	-85.023	595.856	38.995	-420.529	593.152	528.248	-56.551	660.890	525.168	-355.121	528.508	588.505	-98.064	600.228	597.279	-381.958	517.375	501.511	-105.916	0.000	0.000	0.000	467.232	185.269	-21.341	490.730	205.735	-487.648	480.999	144.719	-91.779	478.702	158.561	-419.092
